:SAMPLES-PER-SECOND 30
:FULLY-SPECIFIED
:DEGREES
304
root  -33.2386 35.0022 3.52075 -170.971 80.6507 -179.185
RightUpLeg  -3.81152 -8.99551 -0.894708
RightLeg  0.0396574 8.88479 -0.562172
RightFoot  6.58961 -0.030458 1.13066
RightToes  -31.5875 -0.15501 -0.266508
Spine  -2.42628 -0.0519655 0.115677
Spine1  -4.85936 0.0157275 0.942591
HEad  -63.8804 -0.240449 8.20606
LeftShoulder1  -1.94126e-019 -3.10601e-018 -2.51263e-017
LeftArm  -12.0124 12.8784 -81.2363
LeftForeArm  26.0326 -26.1725 -4.42096
LeftHand  -0.303449 0.85914 7.74785
RightShoulder  -4.96962e-017 0 -2.36833e-017
RightArm  -18.5866 -12.0073 77.865
RightForeArm  48.2181 23.2546 2.52463
RightHand  -0.228682 -2.28043 -8.22883
LeftUpLeg  -5.27974 3.21044 -0.640274
LeftLeg  0.516658 12.965 -0.710876
LeftFoot  7.7008 -0.116613 1.93311
LeftToes  -18.284 1.89912e-006 4.45198e-008
305
root  -33.2525 35.0102 3.52202 -170.929 80.853 -179.156
RightUpLeg  -3.81898 -8.95928 -0.900753
RightLeg  -0.0811263 9.0497 -0.591601
RightFoot  6.71046 -0.0326274 1.1689
RightToes  -31.8046 -0.154864 -0.26661
Spine  -2.39665 0.0167007 0.107252
Spine1  -4.78832 0.154547 0.913027
HEad  -64.0746 -0.126061 7.92849
LeftShoulder1  -1.94126e-019 -3.10601e-018 -2.51263e-017
LeftArm  -9.80303 12.5176 -81.4925
LeftForeArm  25.9531 -29.5027 -4.98548
LeftHand  -0.297204 0.679668 7.31527
RightShoulder  -4.96962e-017 0 -2.36833e-017
RightArm  -16.8213 -11.8322 78.0822
RightForeArm  47.7597 27.1851 3.34299
RightHand  -0.236545 -2.02729 -7.91532
LeftUpLeg  -5.22022 3.39578 -0.656183
LeftLeg  0.361077 12.977 -0.746548
LeftFoot  7.80085 -0.119563 1.95917
LeftToes  -18.4973 1.89912e-006 4.45198e-008
306
root  -33.272 35.012 3.52653 -170.883 80.9153 -179.084
RightUpLeg  -3.83135 -8.93517 -0.891854
RightLeg  -0.0876414 9.09087 -0.595297
RightFoot  6.72352 -0.0328837 1.17639
RightToes  -31.7801 -0.154721 -0.26672
Spine  -2.334 0.0626497 0.109963
Spine1  -4.65714 0.251428 0.907592
HEad  -64.2478 -0.113163 7.54831
LeftShoulder1  -1.94126e-019 -3.10601e-018 -2.51263e-017
LeftArm  -7.97736 12.5794 -81.7843
LeftForeArm  26.5047 -32.4612 -5.63916
LeftHand  -0.300304 0.384663 6.98535
RightShoulder  -4.96962e-017 0 -2.36833e-017
RightArm  -14.1318 -12.4428 77.9116
RightForeArm  47.6924 31.484 4.27966
RightHand  -0.251825 -1.69646 -7.73145
LeftUpLeg  -5.18771 3.48291 -0.648547
LeftLeg  0.294353 12.9461 -0.759789
LeftFoot  7.82082 -0.120545 1.96033
LeftToes  -18.431 1.89912e-006 4.45198e-008
307
root  -33.2838 35.0128 3.52428 -170.909 80.8858 -179.122
RightUpLeg  -3.88304 -9.00592 -0.894839
RightLeg  -0.040702 9.12581 -0.59007
RightFoot  6.70643 -0.0329687 1.17827
RightToes  -31.8247 -0.154581 -0.266838
Spine  -2.26213 0.0710292 0.117103
Spine1  -4.51222 0.272997 0.923728
HEad  -64.4452 -0.0527509 7.09413
LeftShoulder1  -1.94126e-019 -3.10601e-018 -2.51263e-017
LeftArm  -6.75314 13.1677 -82.0754
LeftForeArm  27.3401 -35.1915 -6.28852
LeftHand  -0.295383 -0.0826838 6.32713
RightShoulder  -4.96962e-017 0 -2.36833e-017
RightArm  -10.0344 -13.7536 77.064
RightForeArm  48.0459 36.1581 5.37466
RightHand  -0.270402 -1.37193 -7.686
LeftUpLeg  -5.20664 3.36555 -0.65833
LeftLeg  0.267428 13.0362 -0.771073
LeftFoot  7.82884 -0.122011 1.97581
LeftToes  -18.4419 1.89912e-006 4.45198e-008
308
root  -33.3023 35.0096 3.51933 -170.815 80.6192 -179.083
RightUpLeg  -3.98847 -9.18925 -0.866448
RightLeg  0.0806023 9.03375 -0.565027
RightFoot  6.65376 -0.0318355 1.15987
RightToes  -31.8163 -0.154445 -0.266964
Spine  -2.19714 -0.0018616 0.124598
Spine1  -4.3884 0.131554 0.961803
HEad  -64.6473 0.0067452 6.69846
LeftShoulder1  -1.94126e-019 -3.10601e-018 -2.51263e-017
LeftArm  -5.41084 14.2065 -82.2627
LeftForeArm  28.8801 -37.3052 -6.76722
LeftHand  -0.323713 -0.608474 6.36996
RightShoulder  -4.96962e-017 0 -2.36833e-017
RightArm  -5.40949 -15.6555 75.6088
RightForeArm  49.513 40.7461 6.51955
RightHand  -0.308509 -0.553532 -7.38888
LeftUpLeg  -5.31824 3.08084 -0.644176
LeftLeg  0.272425 13.051 -0.770799
LeftFoot  7.8458 -0.122379 1.98208
LeftToes  -18.4582 1.89912e-006 4.45198e-008
309
root  -33.2722 35.0034 3.48698 -170.669 80.5912 -179.049
RightUpLeg  -4.11368 -9.28771 -0.9004
RightLeg  0.226234 9.13157 -0.547836
RightFoot  6.52121 -0.0314553 1.14964
RightToes  -31.7181 -0.154314 -0.267096
Spine  -2.14616 -0.0246135 0.129495
Spine1  -4.29354 0.0814464 0.974346
HEad  -64.8001 0.0500024 6.33851
LeftShoulder1  -1.94126e-019 -3.10601e-018 -2.51263e-017
LeftArm  -4.3189 15.6904 -82.2953
LeftForeArm  29.8256 -38.806 -7.13224
LeftHand  -0.339348 -0.987395 6.30912
RightShoulder  -4.96962e-017 0 -2.36833e-017
RightArm  -1.52258 -17.9713 73.9978
RightForeArm  50.5821 44.5068 7.58982
RightHand  -0.352095 0.266914 -7.29025
LeftUpLeg  -5.44187 3.04799 -0.685387
LeftLeg  0.408317 13.0696 -0.741071
LeftFoot  7.68531 -0.119507 1.94691
LeftToes  -18.3016 1.89912e-006 4.45198e-008
310
root  -33.2626 34.9953 3.46373 -171.291 80.415 -179.635
RightUpLeg  -4.17871 -9.46212 -1.02495
RightLeg  0.54771 9.11267 -0.495548
RightFoot  6.32445 -0.0295826 1.11579
RightToes  -31.74 -0.154188 -0.267234
Spine  -2.04166 -0.116394 0.1031
Spine1  -4.09989 -0.108361 0.927261
HEad  -64.9433 0.155996 6.08831
LeftShoulder1  -1.94126e-019 -3.10601e-018 -2.51263e-017
LeftArm  -3.52247 17.189 -82.2297
LeftForeArm  30.0488 -38.9802 -7.16316
LeftHand  -0.339723 -1.24433 6.0924
RightShoulder  -4.96962e-017 0 -2.36833e-017
RightArm  1.21659 -20.2925 72.6361
RightForeArm  51.0018 46.5426 8.23449
RightHand  -0.372242 0.75469 -7.13548
LeftUpLeg  -5.52003 2.92808 -0.798286
LeftLeg  0.672592 13.0018 -0.677703
LeftFoot  7.58253 -0.116032 1.91239
LeftToes  -18.2014 1.89912e-006 4.45198e-008
311
root  -33.238 34.978 3.44311 -171.259 80.3249 -179.633
RightUpLeg  -4.32572 -9.60044 -1.04514
RightLeg  0.903899 9.15672 -0.440992
RightFoot  6.09842 -0.0279437 1.08325
RightToes  -31.8333 -0.154066 -0.267378
Spine  -1.96189 -0.163662 0.101997
Spine1  -3.95376 -0.21098 0.922986
HEad  -65.0959 0.149745 5.81929
LeftShoulder1  -1.94126e-019 -3.10601e-018 -2.51263e-017
LeftArm  -3.141 18.6696 -82.203
LeftForeArm  29.6965 -37.8312 -6.85034
LeftHand  -0.332835 -1.26586 5.95393
RightShoulder  -4.96962e-017 0 -2.36833e-017
RightArm  2.08363 -22.7702 71.75
RightForeArm  50.7534 46.7269 8.30552
RightHand  -0.372098 1.13845 -6.74569
LeftUpLeg  -5.68119 2.79147 -0.81306
LeftLeg  1.02195 13.0545 -0.601356
LeftFoot  7.3521 -0.109417 1.86449
LeftToes  -18.2784 1.89912e-006 4.45198e-008
312
root  -33.2075 34.9619 3.42056 -171.542 80.3426 -179.921
RightUpLeg  -4.51307 -9.68592 -1.13122
RightLeg  1.40151 9.24795 -0.365089
RightFoot  5.80302 -0.0258849 1.04298
RightToes  -31.8026 -0.153951 -0.267526
Spine  -1.88334 -0.187687 0.0928093
Spine1  -3.80912 -0.270869 0.900943
HEad  -65.1612 0.144205 5.54698
LeftShoulder1  -1.94126e-019 -3.10601e-018 -2.51263e-017
LeftArm  -3.55092 20.0267 -82.3312
LeftForeArm  29.4409 -35.0403 -6.10329
LeftHand  -0.319687 -1.31387 5.68679
RightShoulder  -4.96962e-017 0 -2.36833e-017
RightArm  0.728869 -25.1236 71.6345
RightForeArm  50.4159 44.4969 7.57305
RightHand  -0.36466 1.45617 -6.3323
LeftUpLeg  -5.83316 2.72344 -0.88721
LeftLeg  1.46485 13.1365 -0.504291
LeftFoot  7.07092 -0.101384 1.80731
LeftToes  -18.0811 1.89912e-006 4.45198e-008
313
root  -33.1812 34.9364 3.40392 -171.304 80.3392 -179.755
RightUpLeg  -4.8222 -9.76641 -1.12779
RightLeg  1.97797 9.36104 -0.275492
RightFoot  5.49662 -0.0238039 1.00093
RightToes  -31.9106 -0.153842 -0.267678
Spine  -1.83673 -0.267806 0.11714
Spine1  -3.72845 -0.454704 0.955604
HEad  -65.1888 0.231163 5.23414
LeftShoulder1  -1.94126e-019 -3.10601e-018 -2.51263e-017
LeftArm  -5.10166 21.277 -82.6481
LeftForeArm  29.1001 -30.7448 -5.05253
LeftHand  -0.30765 -1.26666 5.51253
RightShoulder  -4.96962e-017 0 -2.36833e-017
RightArm  -2.54054 -26.8872 72.2205
RightForeArm  50.2976 39.5287 6.10441
RightHand  -0.384357 1.37113 -6.74325
LeftUpLeg  -6.13135 2.65199 -0.881191
LeftLeg  2.03502 13.2106 -0.37672
LeftFoot  6.7086 -0.0918279 1.7282
LeftToes  -18.0006 1.89912e-006 4.45198e-008
314
root  -33.1518 34.9079 3.39651 -171.205 80.4194 -179.738
RightUpLeg  -5.18225 -9.81163 -1.11983
RightLeg  2.63311 9.45706 -0.170439
RightFoot  5.12316 -0.0208002 0.944529
RightToes  -31.892 -0.15374 -0.267834
Spine  -1.84318 -0.370985 0.140371
Spine1  -3.74753 -0.688497 1.00837
HEad  -65.1992 0.484522 4.91424
LeftShoulder1  -1.94126e-019 -3.10601e-018 -2.51263e-017
LeftArm  -8.28286 22.4541 -83.1337
LeftForeArm  28.2838 -24.8467 -3.77677
LeftHand  -0.31613 -1.14211 5.75838
RightShoulder  -4.96962e-017 0 -2.36833e-017
RightArm  -8.06944 -27.8115 73.3686
RightForeArm  50.3374 31.7541 4.17238
RightHand  -0.388578 0.953284 -7.22842
LeftUpLeg  -6.47201 2.71391 -0.892832
LeftLeg  2.68941 13.2462 -0.227785
LeftFoot  6.36755 -0.082712 1.64844
LeftToes  -18.1797 1.89912e-006 4.45198e-008
